<svg id="Layer_1" data-name="Layer 1" xmlns="http://www.w3.org/2000/svg" viewBox="0 0 445.46 134.47"><defs><style>.cls-1{fill:#6244b3;}.cls-2{fill:#b3e56d;}.cls-3{fill:#3fd0ff;}</style></defs><g id="Rectangle_1" data-name="Rectangle 1"><rect class="cls-1" x="211.31" width="234.15" height="134.47"/></g><path class="cls-1" d="M103.05,123.46a.75.75,0,0,1-.69-.69l.35-39.14-.23-31.91H79.75a.74.74,0,0,1-.69-.68V43.8a.74.74,0,0,1,.69-.68H136a.73.73,0,0,1,.69.68V51a.73.73,0,0,1-.69.68H113.27L113,83.63l.34,39.14a.74.74,0,0,1-.69.69Z" transform="translate(-35.54 -13.09)"/><path class="cls-1" d="M143.66,124.84C126,124.84,116,112.67,116,94.08S126,63,143.89,63c14.81,0,23.76,8.5,25,21.12a.73.73,0,0,1-.69.69h-8.38a1,1,0,0,1-.8-.69c-1.38-8.49-6.77-13.31-15.15-13.31-11.71,0-17.22,8.49-17.22,23.18,0,15,5.51,23.07,17.22,23.19,9.3,0,15-5.74,15.84-15.27a.74.74,0,0,1,.69-.69h8.49a.74.74,0,0,1,.69.69C168.45,115.2,159,124.84,143.66,124.84Z" transform="translate(-35.54 -13.09)"/><path class="cls-1" d="M198.73,71.24C191,71.24,184.5,77.43,182,88l.35,34.78a.75.75,0,0,1-.69.69h-9.07a.75.75,0,0,1-.69-.69l.35-40.06-.35-38.91a.74.74,0,0,1,.69-.68h9.07a.74.74,0,0,1,.69.68l-.23,30.08A21.65,21.65,0,0,1,201.26,63c12.51,0,20.2,7.69,20.08,24.68V99.59l.12,23.18a.75.75,0,0,1-.69.69h-9.18a.74.74,0,0,1-.69-.69L211,99.7V86.85C211,75.83,205.85,71.24,198.73,71.24Z" transform="translate(-35.54 -13.09)"/><path class="cls-2" d="M312,124.84c-17.9,0-28-12.17-28-30.76S294.13,63,312,63s28,12.28,28,30.88S330.05,124.84,312,124.84Zm0-7.69c11.6,0,17.34-8.27,17.34-23.07S323.63,70.66,312,70.66s-17.44,8.61-17.44,23.42S300.44,117.15,312,117.15Z" transform="translate(-35.54 -13.09)"/><path class="cls-3" d="M312,63c-17.9,0-28,12.4-28,31.11s10.1,30.76,28,30.76,28-12.4,28-31S330.05,63,312,63Zm0,0c18,0,28,12.28,28,30.88s-10,31-28,31-28-12.17-28-30.76S294.13,63,312,63Zm0,54.18c-11.59,0-17.44-8.27-17.44-23.07s5.74-23.3,17.44-23.42,17.34,8.61,17.34,23.42-5.74,23.07-17.34,23.07Zm0,0c11.6,0,17.34-8.27,17.34-23.07S323.63,70.66,312,70.66s-17.44,8.61-17.44,23.42,5.85,23.07,17.44,23.07Z" transform="translate(-35.54 -13.09)"/><path class="cls-2" d="M382.62,122.77a.75.75,0,0,1-.69.69H336.82a.75.75,0,0,1-.69-.69V116a2.77,2.77,0,0,1,.46-1.26l32-42.36H339.23a.74.74,0,0,1-.69-.69V65a.74.74,0,0,1,.69-.69h41.32a.73.73,0,0,1,.69.69v6.77a2.81,2.81,0,0,1-.46,1.26l-32.25,42.36h33.4a.74.74,0,0,1,.69.68Z" transform="translate(-35.54 -13.09)"/><path class="cls-3" d="M380.55,64.35H339.23a.74.74,0,0,0-.69.69v6.65a.74.74,0,0,0,.69.69h29.39l-32,42.36a2.77,2.77,0,0,0-.46,1.26v6.77a.75.75,0,0,0,.69.69h45.11a.75.75,0,0,0,.69-.69v-6.66a.74.74,0,0,0-.69-.68h-33.4l32.25-42.36a2.81,2.81,0,0,0,.46-1.26V65a.73.73,0,0,0-.69-.69Zm0,0a.73.73,0,0,1,.69.69v6.77a2.81,2.81,0,0,1-.46,1.26l-32.25,42.36h33.4a.74.74,0,0,1,.69.68v6.66a.75.75,0,0,1-.69.69H336.82a.75.75,0,0,1-.69-.69V116a2.77,2.77,0,0,1,.46-1.26l32-42.36H339.23a.74.74,0,0,1-.69-.69V65a.74.74,0,0,1,.69-.69Z" transform="translate(-35.54 -13.09)"/><path class="cls-2" d="M385.08,123.46a.74.74,0,0,1-.69-.69l.34-39.94-.34-39a.73.73,0,0,1,.69-.68h9.06a.73.73,0,0,1,.69.68l-.34,38.91.34,40.06a.74.74,0,0,1-.69.69Z" transform="translate(-35.54 -13.09)"/><path class="cls-3" d="M394.14,43.12h-9.06a.73.73,0,0,0-.69.68l.34,39-.34,39.94a.74.74,0,0,0,.69.69h9.06a.74.74,0,0,0,.69-.69l-.34-40.06.34-38.91a.73.73,0,0,0-.69-.68Zm0,0a.73.73,0,0,1,.69.68l-.34,38.91.34,40.06a.74.74,0,0,1-.69.69h-9.06a.74.74,0,0,1-.69-.69l.34-39.94-.34-39a.73.73,0,0,1,.69-.68Z" transform="translate(-35.54 -13.09)"/><path class="cls-1" d="M340,53.09c0,.35-.5.69-1,.69l-57.6-.34-56.27.34c-.5,0-1-.34-1-.69V44c0-.35.5-.69,1-.69l56.1.34,57.77-.34c.49,0,1,.34,1,.69Z" transform="translate(-35.54 -13.09)"/><path class="cls-1" d="M453.17,36.76c0,.34-1.79.69-3.58.69L242,37.1l-202.85.35c-1.79,0-3.58-.35-3.58-.69V27.69c0-.34,1.79-.69,3.58-.69l202.25.35L449.59,27c1.79,0,3.58.35,3.58.69Z" transform="translate(-35.54 -13.09)"/><path class="cls-2" d="M451.56,102.91a.58.58,0,0,1,.58.69c-1.72,12.28-10.56,21.24-25.94,21.24-18.37,0-28.24-12.74-28.24-30.76C398,75.6,408.52,63,425.62,63s27.32,11.94,27.55,31.68a.74.74,0,0,1-.69.69H408.41c.34,14.23,6.31,21.81,17.9,21.81,8.73,0,14.12-4.71,15.73-13.55a1,1,0,0,1,.8-.69ZM425.74,70.55c-9.76,0-15.49,6.31-17,17.44h33.17C441.58,78.58,436.18,70.55,425.74,70.55Z" transform="translate(-35.54 -13.09)"/><path class="cls-3" d="M425.62,63C408.52,63,398,75.6,398,94.08c0,18,9.87,30.76,28.24,30.76,15.38,0,24.22-9,25.94-21.24a.58.58,0,0,0-.58-.69h-8.72a1,1,0,0,0-.8.69c-1.61,8.84-7,13.55-15.73,13.55-11.59,0-17.56-7.58-17.9-21.81h44.07a.74.74,0,0,0,.69-.69C452.94,74.91,442.84,63,425.62,63Zm0,0c17.22,0,27.32,11.94,27.55,31.68a.74.74,0,0,1-.69.69H408.41c.34,14.23,6.31,21.81,17.9,21.81,8.73,0,14.12-4.71,15.73-13.55a1,1,0,0,1,.8-.69h8.72a.58.58,0,0,1,.58.69c-1.72,12.28-10.56,21.24-25.94,21.24-18.37,0-28.24-12.74-28.24-30.76C398,75.6,408.52,63,425.62,63ZM408.75,88c1.5-11.13,7.23-17.44,17-17.44,10.44,0,15.84,8,16.18,17.44Zm0,0h33.17c-.34-9.41-5.74-17.44-16.18-17.44-9.76,0-15.49,6.31-17,17.44Z" transform="translate(-35.54 -13.09)"/><path class="cls-1" d="M89.1,88.93l-3.55-3.55A32.44,32.44,0,0,1,77.93,91L75.71,75a14.84,14.84,0,0,0,1.68-6.77A15.06,15.06,0,0,0,65.67,53.56V43.12H59V53.56A14.92,14.92,0,0,0,48.93,75L46.71,91a32.44,32.44,0,0,1-7.62-5.66l-3.55,3.55A37.59,37.59,0,0,0,46,96.29l-3.76,27.17h5l7-24.33a38.07,38.07,0,0,0,16.08,0l7,24.32h5L78.65,96.29A37.59,37.59,0,0,0,89.1,88.93ZM55.68,94.29,59,82.88a13.89,13.89,0,0,0,6.7,0h0L69,94.29A33,33,0,0,1,55.68,94.29Zm6.64-17.7a8.37,8.37,0,1,1,8.37-8.37A8.37,8.37,0,0,1,62.32,76.59Z" transform="translate(-35.54 -13.09)"/><path class="cls-1" d="M286.05,93.9c0,17.91-12.17,28-30.76,28s-31.11-10.1-31.11-28,12.29-28,30.88-28S286.05,75.89,286.05,93.9Zm-7.69,0c0-11.59-8.27-17.33-23.07-17.33s-23.42,5.74-23.42,17.33,8.61,17.45,23.42,17.45S278.36,105.5,278.36,93.9Z" transform="translate(-35.54 -13.09)"/><path class="cls-2" d="M255.4,65.35c-.55,0-1.1,0-1.64,0a19.67,19.67,0,0,1-.22,3.92,67.17,67.17,0,0,0,.71,6.75c.46,0,.91,0,1.38,0,14.81,0,23.07,5.74,23.07,17.34s-8.26,17.44-23.07,17.44l-.88,0a57.29,57.29,0,0,1-.5,10.56l1.38,0c18.6,0,30.76-10.1,30.76-28S274,65.35,255.4,65.35Z" transform="translate(-35.54 -13.09)"/><path class="cls-3" d="M255.4,65.35c-.55,0-1.1,0-1.64,0a19.67,19.67,0,0,1-.22,3.92,67.17,67.17,0,0,0,.71,6.75c.46,0,.91,0,1.38,0,14.81,0,23.07,5.74,23.07,17.34s-8.26,17.44-23.07,17.44l-.88,0a57.29,57.29,0,0,1-.5,10.56l1.38,0c18.6,0,30.76-10.1,30.76-28s-12.39-28-31-28Zm0,0c18.6,0,31,10,31,28s-12.16,28-30.76,28l-1.38,0a57.29,57.29,0,0,0,.5-10.56l.88,0c14.81,0,23.07-5.85,23.07-17.44S270.44,76,255.63,76c-.47,0-.92,0-1.38,0a67.17,67.17,0,0,1-.71-6.75,19.67,19.67,0,0,0,.22-3.92c.54,0,1.09,0,1.64,0Z" transform="translate(-35.54 -13.09)"/><path class="cls-2" d="M255.06,65.35a45.3,45.3,0,0,0-8.18.71,4.7,4.7,0,0,1,0,.53,24.32,24.32,0,0,1-.37,3.3V70a18.68,18.68,0,0,1,.36,4.44q0,.59-.09,1.2a7.43,7.43,0,0,1,.07.94,2.11,2.11,0,0,1,0,.26,43.53,43.53,0,0,1,8.44-.78c14.81,0,23.07,5.74,23.07,17.34s-8.26,17.44-23.07,17.44a42.75,42.75,0,0,1-8.45-.79c-.09,1.18-.24,2.36-.35,3.54a58.5,58.5,0,0,0,.43,5.91,6.44,6.44,0,0,1,.08,1.14,44.66,44.66,0,0,0,8.29.76c18.59,0,30.76-10.1,30.76-28S273.65,65.35,255.06,65.35Z" transform="translate(-35.54 -13.09)"/><path class="cls-3" d="M255.06,65.35a45.3,45.3,0,0,0-8.18.71,4.7,4.7,0,0,1,0,.53,24.32,24.32,0,0,1-.37,3.3V70a18.68,18.68,0,0,1,.36,4.44q0,.59-.09,1.2a7.43,7.43,0,0,1,.07.94,2.11,2.11,0,0,1,0,.26,43.53,43.53,0,0,1,8.44-.78c14.81,0,23.07,5.74,23.07,17.34s-8.26,17.44-23.07,17.44a42.75,42.75,0,0,1-8.45-.79c-.09,1.18-.24,2.36-.35,3.54a58.5,58.5,0,0,0,.43,5.91,6.44,6.44,0,0,1,.08,1.14,44.66,44.66,0,0,0,8.29.76c18.59,0,30.76-10.1,30.76-28s-12.4-28-31-28Zm0,0c18.59,0,31,10,31,28s-12.17,28-30.76,28a44.66,44.66,0,0,1-8.29-.76,6.44,6.44,0,0,0-.08-1.14,58.5,58.5,0,0,1-.43-5.91c.11-1.18.26-2.36.35-3.54a42.75,42.75,0,0,0,8.45.79c14.81,0,23.07-5.85,23.07-17.44S270.1,76,255.29,76a43.53,43.53,0,0,0-8.44.78,2.11,2.11,0,0,0,0-.26,7.43,7.43,0,0,0-.07-.94q.07-.61.09-1.2a18.68,18.68,0,0,0-.36-4.44v-.07a24.32,24.32,0,0,0,.37-3.3,4.7,4.7,0,0,0,0-.53,45.3,45.3,0,0,1,8.18-.71Z" transform="translate(-35.54 -13.09)"/><path class="cls-2" d="M340,52.54a.81.81,0,0,1-.8.69l-46.47-.35-45.4.35a.81.81,0,0,1-.8-.69V43.47a.81.81,0,0,1,.8-.69l45.27.35,46.6-.35a.81.81,0,0,1,.8.69Z" transform="translate(-35.54 -13.09)"/><path class="cls-3" d="M339.16,42.78l-46.6.35-45.27-.35a.81.81,0,0,0-.8.69v9.07a.81.81,0,0,0,.8.69l45.4-.35,46.47.35a.81.81,0,0,0,.8-.69V43.47a.81.81,0,0,0-.8-.69Zm0,0a.81.81,0,0,1,.8.69v9.07a.81.81,0,0,1-.8.69l-46.47-.35-45.4.35a.81.81,0,0,1-.8-.69V43.47a.81.81,0,0,1,.8-.69l45.27.35,46.6-.35Z" transform="translate(-35.54 -13.09)"/></svg>