<svg id="f76e7c75-85b1-4ef8-8e52-4c55c64adb2e" data-name="Layer 1" xmlns="http://www.w3.org/2000/svg" viewBox="0 0 427.63 110.37"><defs><style>.b4f87856-0e2f-451e-9269-9aa40c741310,.f2866896-8147-496b-840f-f9f2952b078b,.f4f38037-5db6-475a-b0b4-2644da5ae935{fill:#6244b3;}.b4f87856-0e2f-451e-9269-9aa40c741310,.f4f38037-5db6-475a-b0b4-2644da5ae935{stroke:#3fd0ff;}.b4f87856-0e2f-451e-9269-9aa40c741310{stroke-width:0.5px;}.f4f38037-5db6-475a-b0b4-2644da5ae935{stroke-width:0.25px;}</style></defs><path class="f2866896-8147-496b-840f-f9f2952b078b" d="M79.52,98.23a.73.73,0,0,1-.69-.68L77.17,51.41,76.94,19.5H54.22a.74.74,0,0,1-.69-.69V11.58a.73.73,0,0,1,.69-.69h56.24a.74.74,0,0,1,.69.69v7.23a.75.75,0,0,1-.69.69H87.73L87.5,51.41l2.35,46.14a.74.74,0,0,1-.69.68Z"/><path class="f2866896-8147-496b-840f-f9f2952b078b" d="M120.12,99.61c-17.67,0-29.66-19.17-29.66-37.76s10-31.1,27.89-31.1c14.81,0,23.76,8.49,25,21.12a.73.73,0,0,1-.68.68h-8.38a1,1,0,0,1-.81-.68c-1.37-8.5-6.77-13.32-15.15-13.32-11.7,0-17.21,8.49-17.21,23.19,0,15,5.51,23.07,17.21,23.18,9.3,0,15-5.74,15.84-15.26a.74.74,0,0,1,.69-.69h8.49a.73.73,0,0,1,.69.69C142.91,83,135.5,99.61,120.12,99.61Z"/><path class="f2866896-8147-496b-840f-f9f2952b078b" d="M173.19,39c-7.69,0-14.23,6.2-16.75,16.76l2.34,41.78a.73.73,0,0,1-.69.68H149a.73.73,0,0,1-.69-.68l-1.66-47.06-.34-38.91a.73.73,0,0,1,.69-.69h9.06a.73.73,0,0,1,.69.69l-.23,30.07a21.68,21.68,0,0,1,19.17-10.9c12.51,0,20.2,7.69,20.09,24.67V67.36l2.11,30.19a.73.73,0,0,1-.69.68h-9.18a.74.74,0,0,1-.69-.68l-1.88-30.08V54.62C185.48,43.6,180.31,39,173.19,39Z"/><path class="f2866896-8147-496b-840f-f9f2952b078b" d="M252.64,61.68c0-17.91,12.16-28,30.76-28s31.1,10.1,31.1,28-10.28,35-28.87,35S252.64,79.7,252.64,61.68Zm7.69,0c0,11.59,8.26,17.33,23.07,17.33s23.41-5.74,23.41-17.33S298.2,44.23,283.4,44.23,260.33,50.09,260.33,61.68Z"/><path class="b4f87856-0e2f-451e-9269-9aa40c741310" d="M226.65,30.75c17.91,0,28,12.16,28,30.76s-8.1,38.1-26,38.1-30-19.28-30-37.87S208.63,30.75,226.65,30.75Zm0,7.69c-11.59,0-17.33,8.26-17.33,23.07s5.74,23.41,17.33,23.41,17.45-8.61,17.45-23.41S238.24,38.44,226.65,38.44Z"/><path class="f2866896-8147-496b-840f-f9f2952b078b" d="M359.08,97.55a.73.73,0,0,1-.69.68h-45.1a.73.73,0,0,1-.69-.68l-2-13.78a2.81,2.81,0,0,1,.46-1.26l32-42.35H313.7a.74.74,0,0,1-.69-.69V32.81a.74.74,0,0,1,.69-.69H355a.74.74,0,0,1,.68.69v6.77a2.85,2.85,0,0,1-.46,1.27L323,83.2h33.4a.73.73,0,0,1,.69.69Z"/><path class="f4f38037-5db6-475a-b0b4-2644da5ae935" d="M361.54,98.23a.73.73,0,0,1-.69-.68L359.19,50.6l-.34-39a.73.73,0,0,1,.69-.69h9.07a.73.73,0,0,1,.68.69L369,50.49l2.34,47.06a.73.73,0,0,1-.68.68Z"/><path class="f2866896-8147-496b-840f-f9f2952b078b" d="M314.5,20.87c0,.34-.5.69-1,.69l-57.6-.35-56.27.35c-.5,0-1-.35-1-.69V11.8c0-.34.49-.69,1-.69l56.11.35,57.76-.35c.49,0,1,.35,1,.69Z"/><path class="f2866896-8147-496b-840f-f9f2952b078b" d="M409.36,4.88a9.47,9.47,0,0,1-3.3.34L214.62,5.05l-187,.17a9.47,9.47,0,0,1-3.3-.34V.34A9.47,9.47,0,0,1,27.58,0L214.07.17l192-.17a9.47,9.47,0,0,1,3.3.34Z"/><path class="f2866896-8147-496b-840f-f9f2952b078b" d="M426,87.69a.57.57,0,0,1,.57.69c-1.72,12.28-8.56,11.23-23.94,11.23-18.36,0-30.23-19.74-30.23-37.76,0-18.48,10.56-31.1,27.66-31.1s27.31,28.93,27.54,48.68a.73.73,0,0,1-.68.68l-44.08-17c.35,14.24,6.31,21.81,17.91,21.81,8.72,0,14.11,12.3,15.72,3.46a1,1,0,0,1,.8-.69ZM400.2,38.32c-9.75,0-15.49,6.31-17,17.45l33.17,17C416,63.36,410.65,38.32,400.2,38.32Z"/><path class="f2866896-8147-496b-840f-f9f2952b078b" d="M53.57,56.71,50,53.16a32.72,32.72,0,0,1-7.63,5.65L40.17,42.76A14.83,14.83,0,0,0,41.85,36,15.06,15.06,0,0,0,30.13,21.33V10.89H23.44V21.33a14.92,14.92,0,0,0-10,21.43L11.18,58.81a32.72,32.72,0,0,1-7.63-5.65L0,56.71a38.05,38.05,0,0,0,10.45,7.35L8.7,98.23h5l5-31.32a38.23,38.23,0,0,0,16.08,0l9,31.32h5L43.12,64.06A37.84,37.84,0,0,0,53.57,56.71ZM20.14,62.07l3.3-11.41a15.27,15.27,0,0,0,3.34.4,15.36,15.36,0,0,0,3.35-.4h0l3.3,11.41A33,33,0,0,1,20.14,62.07Zm6.64-17.7A8.37,8.37,0,1,1,35.15,36,8.37,8.37,0,0,1,26.78,44.37Z"/><path class="f2866896-8147-496b-840f-f9f2952b078b" d="M406.36,110c0,.18-1.65.35-3.3.35l-191.44-.17-187,.17c-1.65,0-3.3-.17-3.3-.35v-4.53a9.47,9.47,0,0,1,3.3-.34l186.49.17,192-.17a9.47,9.47,0,0,1,3.3.34Z"/></svg>